<?xml version="1.0" encoding="UTF-8" standalone="no"?>
<!DOCTYPE svg PUBLIC "-//W3C//DTD SVG 1.1//EN"
 "http://www.w3.org/Graphics/SVG/1.1/DTD/svg11.dtd">
<!-- Generated by graphviz version 12.1.1 (20240910.0053)
 -->
<!-- Title: INFRA Pages: 1 -->
<svg width="515pt" height="296pt"
 viewBox="0.00 0.00 514.80 296.00" xmlns="http://www.w3.org/2000/svg" xmlns:xlink="http://www.w3.org/1999/xlink">
<g id="graph0" class="graph" transform="scale(1 1) rotate(0) translate(4 292)">
<title>INFRA</title>
<polygon fill="white" stroke="none" points="-4,4 -4,-292 510.8,-292 510.8,4 -4,4"/>
<!-- anomaly_detections -->
<g id="node1" class="node">
<title>anomaly_detections</title>
<path fill="#ffcfb3" stroke="black" stroke-width="2" d="M156.8,-65.45C156.8,-69.07 121.66,-72 78.4,-72 35.14,-72 0,-69.07 0,-65.45 0,-65.45 0,-6.55 0,-6.55 0,-2.93 35.14,0 78.4,0 121.66,0 156.8,-2.93 156.8,-6.55 156.8,-6.55 156.8,-65.45 156.8,-65.45"/>
<path fill="none" stroke="black" stroke-width="2" d="M156.8,-65.45C156.8,-61.84 121.66,-58.91 78.4,-58.91 35.14,-58.91 0,-61.84 0,-65.45"/>
<text text-anchor="middle" x="78.4" y="-40.2" font-family="Arial" font-size="14.00">anomaly_detections</text>
<text text-anchor="middle" x="78.4" y="-23.4" font-family="Arial" font-size="14.00">(AWS::RDS::DBTable)</text>
</g>
<!-- response_actions -->
<g id="node2" class="node">
<title>response_actions</title>
<path fill="#ffcfb3" stroke="black" stroke-width="2" d="M331.8,-65.45C331.8,-69.07 296.66,-72 253.4,-72 210.14,-72 175,-69.07 175,-65.45 175,-65.45 175,-6.55 175,-6.55 175,-2.93 210.14,0 253.4,0 296.66,0 331.8,-2.93 331.8,-6.55 331.8,-6.55 331.8,-65.45 331.8,-65.45"/>
<path fill="none" stroke="black" stroke-width="2" d="M331.8,-65.45C331.8,-61.84 296.66,-58.91 253.4,-58.91 210.14,-58.91 175,-61.84 175,-65.45"/>
<text text-anchor="middle" x="253.4" y="-40.2" font-family="Arial" font-size="14.00">response_actions</text>
<text text-anchor="middle" x="253.4" y="-23.4" font-family="Arial" font-size="14.00">(AWS::RDS::DBTable)</text>
</g>
<!-- security_logs -->
<g id="node3" class="node">
<title>security_logs</title>
<path fill="#ffcfb3" stroke="black" stroke-width="2" d="M506.8,-65.45C506.8,-69.07 471.66,-72 428.4,-72 385.14,-72 350,-69.07 350,-65.45 350,-65.45 350,-6.55 350,-6.55 350,-2.93 385.14,0 428.4,0 471.66,0 506.8,-2.93 506.8,-6.55 506.8,-6.55 506.8,-65.45 506.8,-65.45"/>
<path fill="none" stroke="black" stroke-width="2" d="M506.8,-65.45C506.8,-61.84 471.66,-58.91 428.4,-58.91 385.14,-58.91 350,-61.84 350,-65.45"/>
<text text-anchor="middle" x="428.4" y="-40.2" font-family="Arial" font-size="14.00">security_logs</text>
<text text-anchor="middle" x="428.4" y="-23.4" font-family="Arial" font-size="14.00">(AWS::RDS::DBTable)</text>
</g>
<!-- PostgreSQL Database -->
<g id="node4" class="node">
<title>PostgreSQL Database</title>
<path fill="#ffcfb3" stroke="black" stroke-width="2" d="M340.75,-173.45C340.75,-177.07 301.6,-180 253.4,-180 205.2,-180 166.05,-177.07 166.05,-173.45 166.05,-173.45 166.05,-114.55 166.05,-114.55 166.05,-110.93 205.2,-108 253.4,-108 301.6,-108 340.75,-110.93 340.75,-114.55 340.75,-114.55 340.75,-173.45 340.75,-173.45"/>
<path fill="none" stroke="black" stroke-width="2" d="M340.75,-173.45C340.75,-169.84 301.6,-166.91 253.4,-166.91 205.2,-166.91 166.05,-169.84 166.05,-173.45"/>
<text text-anchor="middle" x="253.4" y="-148.2" font-family="Arial" font-size="14.00">PostgreSQL Database</text>
<text text-anchor="middle" x="253.4" y="-131.4" font-family="Arial" font-size="14.00">(AWS::RDS::DBInstance)</text>
</g>
<!-- PostgreSQL Database&#45;&gt;anomaly_detections -->
<g id="edge1" class="edge">
<title>PostgreSQL Database&#45;&gt;anomaly_detections</title>
<path fill="none" stroke="black" d="M196.1,-108.29C179.68,-98.35 161.65,-87.43 144.74,-77.18"/>
<polygon fill="black" stroke="black" points="146.6,-74.22 136.23,-72.03 142.97,-80.2 146.6,-74.22"/>
</g>
<!-- PostgreSQL Database&#45;&gt;response_actions -->
<g id="edge2" class="edge">
<title>PostgreSQL Database&#45;&gt;response_actions</title>
<path fill="none" stroke="black" d="M253.4,-107.7C253.4,-99.93 253.4,-91.57 253.4,-83.43"/>
<polygon fill="black" stroke="black" points="256.9,-83.66 253.4,-73.66 249.9,-83.66 256.9,-83.66"/>
</g>
<!-- PostgreSQL Database&#45;&gt;security_logs -->
<g id="edge3" class="edge">
<title>PostgreSQL Database&#45;&gt;security_logs</title>
<path fill="none" stroke="black" d="M310.7,-108.29C327.12,-98.35 345.15,-87.43 362.06,-77.18"/>
<polygon fill="black" stroke="black" points="363.83,-80.2 370.57,-72.03 360.2,-74.22 363.83,-80.2"/>
</g>
<!-- Application Server -->
<g id="node5" class="node">
<title>Application Server</title>
<path fill="#b7e0ff" stroke="black" stroke-width="2" d="M317.87,-288C317.87,-288 188.93,-288 188.93,-288 182.93,-288 176.93,-282 176.93,-276 176.93,-276 176.93,-228 176.93,-228 176.93,-222 182.93,-216 188.93,-216 188.93,-216 317.87,-216 317.87,-216 323.87,-216 329.87,-222 329.87,-228 329.87,-228 329.87,-276 329.87,-276 329.87,-282 323.87,-288 317.87,-288"/>
<text text-anchor="middle" x="253.4" y="-256.2" font-family="Arial" font-size="14.00">Application Server</text>
<text text-anchor="middle" x="253.4" y="-239.4" font-family="Arial" font-size="14.00">(AWS::EC2::Instance)</text>
</g>
<!-- Application Server&#45;&gt;PostgreSQL Database -->
<g id="edge4" class="edge">
<title>Application Server&#45;&gt;PostgreSQL Database</title>
<path fill="none" stroke="black" d="M253.4,-215.7C253.4,-207.93 253.4,-199.57 253.4,-191.43"/>
<polygon fill="black" stroke="black" points="256.9,-191.66 253.4,-181.66 249.9,-191.66 256.9,-191.66"/>
</g>
</g>
</svg>
